# xmcd
#
# Track frame offsets:
#	150
#	17482
#	29125
#
# Disc length: 556 seconds
#
# Revision: 1
# Processed by: cddbd v1.4PL0 Copyright (c) Steve Scherf et al.
# Submitted via: EasyCDDAExtractor 5.0.7
#
DISCID=1d022a03
DTITLE=BenLee - Cigarettes Will Kill You
DYEAR=1999
DGENRE=alternative
TTITLE0=Cigarettes Will Kill You
TTITLE1=Girl's Talk
TTITLE2=How To Survive A Broken Heart
EXTD=YEAR: 2002 ID3G: 12
EXTT0=
EXTT1=
EXTT2=
PLAYORDER=
